<?xml version="1.0" encoding="UTF-8" standalone="no"?>
<!-- Generator: Adobe Illustrator 18.1.1, SVG Export Plug-In . SVG Version: 6.00 Build 0)  -->

<svg
   version="1.1"
   id="Layer_1"
   x="0px"
   y="0px"
   viewBox="0 0 4274.9999 814.00003"
   enable-background="new 0 0 4095.6 615.1"
   xml:space="preserve"
   sodipodi:docname="brand.svg"
   width="4275"
   height="814"
   inkscape:version="1.4 (e7c3feb1, 2024-10-09)"
   xmlns:inkscape="http://www.inkscape.org/namespaces/inkscape"
   xmlns:sodipodi="http://sodipodi.sourceforge.net/DTD/sodipodi-0.dtd"
   xmlns="http://www.w3.org/2000/svg"
   xmlns:svg="http://www.w3.org/2000/svg"><defs
   id="defs28" /><sodipodi:namedview
   id="namedview28"
   pagecolor="#ffffff"
   bordercolor="#000000"
   borderopacity="0.25"
   inkscape:showpageshadow="2"
   inkscape:pageopacity="0.0"
   inkscape:pagecheckerboard="0"
   inkscape:deskcolor="#d1d1d1"
   inkscape:zoom="0.11980734"
   inkscape:cx="1982.3494"
   inkscape:cy="417.33671"
   inkscape:window-width="1496"
   inkscape:window-height="851"
   inkscape:window-x="8"
   inkscape:window-y="46"
   inkscape:window-maximized="0"
   inkscape:current-layer="Layer_1" />
<rect
   style="fill:#ffffff;fill-opacity:1;stroke:none;stroke-width:1.00157;stroke-opacity:0.65"
   id="rect28"
   width="4275"
   height="814"
   x="0"
   y="0"
   rx="250" /><g
   id="g9"
   transform="translate(100,99)">
	<path
   fill="#2d3e50"
   d="m 1682.8,388.2 c 20.7,12.7 51,23.4 82.8,23.4 47.3,0 74.9,-25 74.9,-61.1 0,-33.5 -19.1,-52.6 -67.4,-71.2 -58.4,-20.7 -94.5,-51 -94.5,-101.4 0,-55.8 46.2,-97.2 115.8,-97.2 36.6,0 63.2,8.5 79.1,17.5 l -12.7,37.7 c -11.7,-6.4 -35.6,-17 -68,-17 -48.9,0 -67.4,29.2 -67.4,53.6 0,33.5 21.8,49.9 71.2,69 60.5,23.4 91.3,52.6 91.3,105.1 0,55.2 -40.9,103 -125.3,103 -34.5,0 -72.2,-10.1 -91.3,-22.8 z"
   id="path1" />
	<path
   fill="#2d3e50"
   d="m 1962.1,187.4 56.3,151.9 c 5.8,17 12.2,37.2 16.5,52.6 h 1.1 c 4.8,-15.4 10.1,-35 16.5,-53.6 l 51,-150.8 h 49.4 l -70.1,183.2 c -33.5,88.1 -56.3,133.3 -88.1,160.9 -22.8,20.2 -45.7,28.1 -57.3,30.3 l -11.7,-39.3 c 11.7,-3.7 27.1,-11.2 40.9,-22.8 12.7,-10.1 28.7,-28.1 39.3,-52 2.1,-4.8 3.7,-8.5 3.7,-11.2 0,-2.7 -1.1,-6.4 -3.2,-12.2 l -95,-236.8 h 50.7 z"
   id="path2" />
	<path
   fill="#2d3e50"
   d="m 2195.2,257 c 0,-26.5 -0.5,-48.3 -2.1,-69.6 h 41.4 l 2.7,42.5 h 1.1 c 12.7,-24.4 42.5,-48.3 85,-48.3 35.6,0 90.8,21.2 90.8,109.4 v 153.5 h -46.7 V 296.3 c 0,-41.4 -15.4,-75.9 -59.5,-75.9 -30.8,0 -54.7,21.8 -62.7,47.8 -2.1,5.8 -3.2,13.8 -3.2,21.8 v 154.5 h -46.7 V 257 Z"
   id="path3" />
	<path
   fill="#2d3e50"
   d="m 2491.5,91.3 c 20.2,-4.2 52,-7.4 84.4,-7.4 46.2,0 75.9,8 98.2,26 18.6,13.8 29.7,35 29.7,63.2 0,34.5 -22.8,64.8 -60.5,78.6 v 1.1 c 34,8.5 73.8,36.6 73.8,89.7 0,30.8 -12.2,54.2 -30.3,71.7 -25,22.8 -65.3,33.5 -123.7,33.5 -31.9,0 -56.3,-2.1 -71.7,-4.2 V 91.3 Z m 46.2,146.6 h 41.9 c 48.9,0 77.5,-25.5 77.5,-60 0,-41.9 -31.9,-58.4 -78.6,-58.4 -21.2,0 -33.5,1.6 -40.9,3.2 v 115.2 z m 0,171.5 c 9,1.6 22.3,2.1 38.8,2.1 47.8,0 91.9,-17.5 91.9,-69.6 0,-48.9 -42,-69 -92.4,-69 h -38.2 v 136.5 z"
   id="path4" />
	<path
   fill="#2d3e50"
   d="m 2829.7,115.2 c 0.5,15.9 -11.2,28.7 -29.7,28.7 -16.5,0 -28.1,-12.7 -28.1,-28.7 0,-16.5 12.2,-29.2 29.2,-29.2 17.5,0 28.6,12.8 28.6,29.2 z m -52,329.3 v -257 h 46.7 v 257 z"
   id="path5" />
	<path
   fill="#2d3e50"
   d="m 3134.5,313.8 c 0,95.1 -65.8,136.5 -128,136.5 -69.6,0 -123.2,-51 -123.2,-132.2 0,-86 56.3,-136.5 127.4,-136.5 73.9,0 123.8,53.6 123.8,132.2 z m -203.9,2.7 c 0,56.3 32.4,98.8 78.1,98.8 44.6,0 78.1,-42 78.1,-99.8 0,-43.5 -21.8,-98.8 -77,-98.8 -55.2,0 -79.2,50.9 -79.2,99.8 z"
   id="path6" />
	<path
   fill="#d25627"
   d="m 3241.2,86.6 v 149.7 h 173.1 V 86.6 h 46.7 v 357.9 h -46.7 V 276.7 H 3241.2 V 444.5 H 3195 V 86.6 Z"
   id="path7" />
	<path
   fill="#d25627"
   d="m 3754.7,374.4 c 0,26.6 0.5,49.9 2.1,70.1 h -41.4 l -2.7,-41.9 h -1.1 c -12.2,20.7 -39.3,47.8 -85,47.8 -40.4,0 -88.7,-22.3 -88.7,-112.6 V 187.4 h 46.7 v 142.3 c 0,48.9 14.9,81.8 57.3,81.8 31.3,0 53.1,-21.8 61.6,-42.5 2.7,-6.9 4.2,-15.4 4.2,-23.9 V 187.4 h 46.7 v 187 z"
   id="path8" />
	<path
   fill="#d25627"
   d="m 3830.1,444.5 c 1.1,-17.5 2.1,-43.5 2.1,-66.4 V 67.4 h 46.2 v 161.4 h 1.1 c 16.5,-28.7 46.2,-47.3 87.6,-47.3 63.7,0 108.9,53.1 108.3,131.2 0,91.9 -57.9,137.5 -115.2,137.5 -37.2,0 -66.9,-14.3 -86,-48.3 h -1.6 l -2.1,42.5 h -40.4 z m 48.3,-103.1 c 0,5.8 1.1,11.7 2.1,17 9,32.4 36.1,54.7 70.1,54.7 48.9,0 78.1,-39.8 78.1,-98.8 0,-51.5 -26.5,-95.6 -76.5,-95.6 -31.9,0 -61.6,21.8 -71.2,57.3 -1.1,5.3 -2.7,11.7 -2.7,19.1 v 46.3 z"
   id="path9" />
</g>
<path
   fill="#2d3e50"
   d="M 1033.6,714.1 H 628.4 c -56.1,0 -104.5,-45.9 -104.5,-104.5 V 204.5 C 524,148.4 569.8,100 628.4,100 h 405.1 c 56.1,0 104.5,45.9 104.5,104.5 v 405.1 c 0,58.6 -48.4,104.5 -104.4,104.5 z m -405.2,-586 c -43.3,0 -79,35.7 -79,79 v 405.1 c 0,43.3 35.7,79 79,79 h 405.1 c 43.3,0 79,-35.7 79,-79 V 207 c 0,-43.3 -35.7,-79 -79,-79 H 628.4 Z"
   id="path10" />
<path
   fill="#d25627"
   d="m 725.3,357.4 c -45.9,0 -84.1,-38.2 -84.1,-84.1 0,-45.9 38.2,-86.6 84.1,-86.6 45.9,0 84.1,38.2 84.1,86.6 -0.1,45.8 -35.7,84.1 -84.1,84.1 z m 0,-150.4 c -35.7,0 -63.7,28 -63.7,63.7 0,35.7 28,63.7 63.7,63.7 35.7,0 63.7,-28 63.7,-63.7 C 789,235 760.9,207 725.3,207 Z"
   id="path11" />
<rect
   x="864.59491"
   y="-609.84229"
   transform="rotate(50.111533)"
   fill="#2d3e50"
   width="28.00021"
   height="38.200287"
   id="rect11"
   style="stroke-width:1.00001" />
<polygon
   fill="#2d3e50"
   points="895.3,143.7 864.8,166.6 882.6,187 910.6,164.1 "
   id="polygon11"
   transform="translate(100,99)" />
<path
   fill="#2d3e50"
   d="M 985.1,232.5 975,219.8 c -5.1,-5.1 -12.7,-7.6 -20.4,-2.5 l -7.6,7.6 c -5.1,5.1 -7.6,12.7 -2.5,20.4 l 10.2,12.7 z"
   id="path12" />
<rect
   x="1115.1"
   y="232.5"
   fill="#2d3e50"
   width="191.10001"
   height="25.5"
   id="rect12" />
<rect
   x="1135.5"
   y="454.20001"
   fill="#2d3e50"
   width="338.89999"
   height="25.5"
   id="rect13" />
<rect
   x="343.10001"
   y="479.70001"
   fill="#2d3e50"
   width="191.10001"
   height="25.5"
   id="rect14" />
<rect
   x="203"
   y="258"
   fill="#2d3e50"
   width="338.89999"
   height="25.5"
   id="rect15" />
<path
   fill="#2d3e50"
   d="m 1018.5,328.7 10.4,12.5 c 5.2,5 12.9,7.4 20.4,2.2 l 7.5,-7.8 c 5,-5.2 7.4,-12.9 2.2,-20.4 l -10.4,-12.5 z"
   id="path15" />
<circle
   fill="#2d3e50"
   cx="908.20001"
   cy="545.90002"
   r="26.299999"
   id="circle15" />
<circle
   fill="#2d3e50"
   cx="785.90002"
   cy="598.5"
   r="26.299999"
   id="circle16" />
<circle
   fill="#2d3e50"
   cx="769.29999"
   cy="493.29999"
   r="26.299999"
   id="circle17" />
<circle
   fill="#2d3e50"
   cx="945.40002"
   cy="455"
   r="26.299999"
   id="circle18" />
<circle
   fill="#d25627"
   stroke="#2d3e50"
   stroke-width="24"
   stroke-miterlimit="10"
   cx="289.60001"
   cy="493.10001"
   r="48.400002"
   id="circle19" />
<circle
   fill="#2d3e50"
   stroke="#2d3e50"
   stroke-width="24"
   stroke-miterlimit="10"
   cx="160.39999"
   cy="270.70001"
   r="48.400002"
   id="circle20" />
<circle
   fill="#d25627"
   stroke="#2d3e50"
   stroke-width="24"
   stroke-miterlimit="10"
   cx="1353.3"
   cy="245.3"
   r="48.400002"
   id="circle21" />
<circle
   fill="#2d3e50"
   stroke="#2d3e50"
   stroke-width="24"
   stroke-miterlimit="10"
   cx="1513.3"
   cy="466.89999"
   r="48.400002"
   id="circle22" />
<rect
   x="831"
   y="393"
   fill="#2d3e50"
   width="35.700001"
   height="35.700001"
   id="rect22" />
<rect
   x="648.70001"
   y="541.5"
   fill="#2d3e50"
   width="35.700001"
   height="35.700001"
   id="rect23" />
<g
   id="g23"
   transform="translate(100,99)">
</g>
<g
   id="g24"
   transform="translate(100,99)">
</g>
<g
   id="g25"
   transform="translate(100,99)">
</g>
<g
   id="g26"
   transform="translate(100,99)">
</g>
<g
   id="g27"
   transform="translate(100,99)">
</g>
<g
   id="g28"
   transform="translate(100,99)">
</g>
</svg>
